<?xml version="1.0" standalone="no"?>
<!DOCTYPE svg PUBLIC "-//W3C//DTD SVG 20010904//EN"
 "http://www.w3.org/TR/2001/REC-SVG-20010904/DTD/svg10.dtd">
<svg version="1.0" xmlns="http://www.w3.org/2000/svg"
 width="616.000000pt" height="1328.000000pt" viewBox="0 0 616.000000 1328.000000"
 preserveAspectRatio="xMidYMid meet">

<g transform="translate(0.000000,1328.000000) scale(0.100000,-0.100000)"
fill="#000000" stroke="none">
<path d="M3871 13259 c-43 -13 -67 -42 -81 -99 -19 -84 -38 -148 -50 -170 -6
-11 -18 -61 -26 -111 -8 -49 -25 -118 -39 -151 -14 -34 -25 -73 -25 -88 0 -14
-4 -30 -8 -36 -11 -12 -26 -64 -53 -184 -11 -52 -27 -108 -34 -125 -26 -57
-67 -180 -80 -240 -24 -109 -55 -218 -65 -230 -5 -6 -19 -63 -31 -126 -12 -63
-25 -123 -29 -134 -4 -11 -21 -62 -36 -113 -31 -103 -33 -104 -104 -56 -40 28
-53 29 -70 9 -15 -19 -40 -20 -40 -2 0 8 -16 30 -35 50 -19 20 -35 40 -35 44
0 4 -13 17 -30 28 -16 11 -35 30 -41 42 -7 13 -16 23 -21 23 -4 0 -8 6 -8 13
0 7 -10 17 -22 22 -13 6 -23 19 -23 30 0 11 -7 21 -16 23 -10 2 -19 12 -22 23
-3 11 -11 19 -19 18 -28 -3 -48 1 -48 12 0 6 7 8 18 4 13 -5 12 -1 -5 14 -12
12 -27 21 -33 21 -5 0 -10 5 -10 11 0 5 -4 8 -9 5 -10 -7 -62 39 -54 48 4 3
-4 6 -16 6 -17 0 -22 4 -17 16 5 13 2 15 -15 11 -15 -4 -19 -2 -15 9 3 8 -1
14 -8 14 -8 0 -32 18 -54 40 -22 22 -45 40 -51 40 -7 0 -27 11 -45 25 -18 14
-38 25 -44 25 -7 0 -12 4 -12 8 0 5 -19 17 -42 27 -72 29 -152 68 -168 80 -8
6 -35 18 -60 25 -25 7 -49 17 -55 20 -5 4 -27 11 -49 14 -21 4 -46 11 -55 15
-101 51 -384 77 -496 46 -57 -16 -123 -46 -155 -71 -8 -6 -26 -15 -40 -19 -24
-7 -110 -90 -110 -107 0 -4 -7 -8 -15 -8 -8 0 -15 -4 -15 -10 0 -5 -20 -28
-44 -52 -44 -44 -97 -120 -133 -193 -11 -22 -41 -81 -67 -130 -42 -83 -47
-100 -54 -190 -5 -55 -5 -131 -1 -170 11 -97 11 -115 -2 -115 -12 0 -72 -43
-108 -77 -13 -13 -30 -23 -37 -23 -7 0 -17 -6 -21 -13 -4 -7 -35 -26 -68 -42
-82 -41 -95 -56 -95 -110 0 -32 -4 -45 -14 -45 -7 0 -19 -7 -26 -15 -17 -20
-52 -13 -128 26 -31 16 -62 29 -69 29 -12 0 -73 -83 -73 -99 0 -5 -6 -11 -14
-14 -19 -7 -56 -87 -56 -121 0 -19 -15 -43 -54 -82 -49 -50 -55 -62 -67 -122
-12 -66 -7 -200 22 -527 6 -60 14 -177 19 -258 5 -82 11 -160 14 -175 3 -15
13 -126 21 -247 9 -121 20 -269 25 -330 5 -60 14 -204 20 -320 6 -115 13 -216
16 -224 2 -8 9 -105 14 -216 5 -111 14 -222 19 -247 6 -25 15 -137 20 -249 6
-112 17 -278 25 -369 8 -91 20 -235 26 -320 24 -343 55 -735 76 -950 8 -85 14
-193 14 -240 0 -47 7 -133 15 -193 8 -59 17 -165 20 -235 4 -70 15 -227 26
-348 10 -122 19 -252 19 -289 0 -37 6 -135 14 -219 25 -264 47 -536 57 -711 5
-93 13 -206 18 -250 5 -44 10 -127 10 -185 1 -58 10 -186 21 -285 11 -99 20
-217 20 -263 0 -46 7 -167 15 -270 8 -103 19 -263 25 -357 5 -93 15 -224 20
-290 33 -376 43 -519 50 -685 8 -195 30 -352 55 -400 8 -16 15 -34 15 -39 0
-16 28 -49 107 -127 75 -74 169 -137 222 -149 17 -4 31 -11 31 -16 0 -5 9 -9
19 -9 11 0 23 -5 26 -10 3 -6 16 -10 29 -10 12 0 31 -7 42 -15 10 -8 27 -15
36 -15 10 0 32 -6 50 -14 146 -61 189 -77 224 -83 21 -3 45 -10 52 -16 7 -5
44 -12 82 -15 39 -2 70 -8 70 -13 0 -11 56 -23 390 -88 215 -41 479 -62 505
-41 12 10 18 10 30 0 32 -27 892 -3 1111 31 33 5 82 9 109 9 27 0 76 6 109 14
34 8 95 19 136 26 41 7 111 21 155 32 44 11 103 24 130 29 28 5 59 13 70 18
11 5 61 22 110 36 100 30 140 43 170 55 11 5 43 18 70 30 28 12 66 29 85 40
19 10 50 26 68 36 38 20 166 144 186 182 61 115 68 152 95 512 7 85 17 210 22
276 5 67 14 204 19 305 5 101 16 242 25 314 8 71 15 168 15 215 0 80 9 213 46
685 8 110 19 281 24 380 5 99 13 232 19 295 6 63 15 219 21 345 6 127 16 263
21 303 5 40 9 119 9 175 0 56 7 185 15 287 9 102 20 271 25 375 6 105 17 246
25 315 8 69 15 154 15 190 0 36 7 133 15 215 8 83 19 294 25 470 5 176 12 340
15 365 18 153 33 343 33 415 0 17 1 35 1 40 4 32 10 125 16 230 3 66 8 163 11
215 3 52 7 122 8 155 2 33 6 92 10 130 3 39 7 147 10 240 3 130 8 181 21 213
15 37 16 47 4 68 -10 20 -10 29 -1 44 8 13 12 66 12 152 0 73 6 219 14 323 9
105 20 287 26 405 12 243 26 446 41 600 17 172 24 541 10 582 -13 40 -97 138
-118 138 -7 0 -13 4 -13 8 0 11 -37 29 -115 57 -56 19 -60 23 -63 55 -4 46
-51 86 -174 149 -35 18 -56 8 -126 -60 -46 -45 -52 -47 -75 -36 -14 7 -28 20
-31 30 -2 9 -17 22 -33 28 -15 5 -39 25 -53 44 -20 28 -36 36 -80 46 -30 6
-68 17 -85 24 -65 28 -105 50 -105 57 0 5 -8 8 -17 8 -9 0 -27 10 -40 22 l-24
23 -29 -33 c-25 -29 -31 -32 -50 -22 -12 7 -42 12 -66 13 -24 0 -44 2 -44 3 0
2 11 29 25 60 14 31 25 62 25 69 0 6 8 21 18 32 9 11 26 47 36 79 10 33 36 96
57 142 22 46 39 87 39 92 0 5 6 21 14 37 8 15 26 55 41 88 15 33 33 71 40 85
7 14 15 38 19 54 4 16 20 58 37 92 16 35 29 66 29 70 0 4 12 32 26 61 14 30
23 57 21 60 -3 2 10 36 29 73 19 38 34 76 34 83 0 8 7 29 16 48 36 77 53 116
69 159 9 25 21 53 26 63 5 9 13 25 18 35 5 9 19 42 31 72 13 30 29 69 36 87 8
17 14 36 14 42 0 6 9 26 20 46 11 20 20 40 20 46 0 6 9 23 20 37 23 29 20 63
-11 121 -40 75 -93 101 -204 101 l-82 0 -20 -52 c-12 -29 -40 -102 -63 -163
-24 -60 -49 -119 -56 -130 -8 -11 -14 -27 -14 -37 0 -10 -10 -39 -21 -65 -12
-27 -29 -66 -39 -88 -10 -22 -26 -60 -35 -85 -9 -25 -34 -81 -54 -125 -57
-121 -71 -154 -71 -168 0 -7 -9 -29 -20 -50 -11 -20 -20 -44 -20 -52 0 -9 -7
-18 -15 -21 -8 -4 -15 -18 -15 -32 0 -30 -46 -150 -66 -173 -8 -8 -14 -23 -14
-32 0 -15 -8 -38 -45 -122 -14 -32 -49 -114 -85 -205 -13 -30 -29 -64 -36 -75
-8 -11 -14 -25 -14 -33 0 -7 -15 -46 -33 -85 -64 -136 -77 -168 -77 -180 0 -7
-6 -22 -14 -32 -13 -18 -16 -14 -35 49 -12 37 -21 80 -21 95 0 35 -125 171
-158 171 -12 0 -22 -4 -22 -10 0 -5 -5 -10 -11 -10 -12 0 -162 -109 -167 -122
-2 -4 -12 -8 -21 -8 -17 0 -51 -29 -51 -43 0 -19 91 8 110 32 15 19 150 111
163 111 14 0 65 -57 101 -113 18 -29 40 -102 57 -190 7 -40 5 -60 -12 -110
-11 -34 -29 -76 -40 -93 -10 -17 -19 -37 -19 -44 0 -11 -51 -125 -89 -200 -10
-19 -38 -84 -62 -144 -24 -59 -49 -111 -57 -113 -7 -3 -29 9 -48 28 -30 29
-34 39 -34 84 0 29 3 54 6 57 3 4 21 0 39 -8 68 -28 109 -10 69 31 -13 12 -14
19 -4 30 10 12 9 15 -7 15 -10 0 -23 -4 -29 -10 -11 -11 -143 19 -168 39 -9 7
-16 22 -16 33 0 10 -9 37 -19 59 -11 22 -23 53 -26 69 -4 17 -11 32 -16 35
-14 10 -10 -67 6 -95 8 -14 14 -34 15 -46 0 -37 50 -124 71 -124 14 0 19 -7
19 -25 0 -32 -22 -32 -54 0 -34 34 -69 41 -105 19 -17 -10 -31 -22 -31 -27 0
-13 -30 -40 -37 -33 -5 5 33 150 43 165 2 1 8 0 14 -4 9 -6 9 -10 -1 -16 -11
-8 -10 -12 5 -24 25 -19 36 -19 36 0 0 8 6 14 12 13 26 -6 12 27 -20 47 -29
18 -32 24 -28 55 3 19 14 64 25 100 11 36 27 94 37 130 9 36 25 90 35 120 9
30 27 93 39 140 12 47 35 128 52 180 16 52 33 113 38 135 5 22 15 60 24 85 15
45 25 81 66 235 21 81 59 207 125 410 19 61 35 119 35 129 0 11 9 49 19 85 11
36 25 92 32 124 7 31 16 57 21 57 4 0 8 10 8 21 0 12 7 42 14 68 86 273 104
374 71 401 -8 7 -15 19 -15 26 0 16 -70 50 -120 57 -19 3 -48 8 -65 11 -16 3
-45 0 -64 -5z m-2031 -1059 c30 -6 60 -15 65 -20 6 -4 37 -13 70 -19 64 -13
114 -30 185 -66 59 -29 151 -75 172 -86 10 -5 24 -9 32 -9 8 0 16 -3 18 -8 2
-4 26 -22 55 -40 28 -18 54 -39 57 -47 3 -8 12 -15 20 -15 7 0 16 -6 19 -14 5
-14 65 -64 131 -111 16 -11 41 -31 55 -45 15 -14 49 -43 76 -64 47 -39 205
-196 205 -205 0 -2 16 -19 35 -38 47 -46 58 -68 45 -93 -10 -18 -40 -18 -40 0
0 9 -66 80 -75 80 -11 0 61 -101 77 -108 5 -2 8 -8 8 -13 0 -18 -15 -9 -35 21
-22 32 -75 76 -75 62 0 -5 20 -29 45 -53 43 -42 54 -59 38 -59 -5 0 -28 18
-52 40 -58 51 -67 43 -13 -12 23 -23 42 -46 42 -52 0 -5 -9 -20 -21 -32 l-20
-22 20 -113 c27 -145 27 -159 0 -159 -11 0 -30 -5 -42 -11 -14 -7 -10 0 12 20
18 18 31 34 29 37 -10 10 -37 -9 -67 -47 -18 -21 -37 -39 -44 -39 -7 0 -32
-18 -56 -40 -24 -22 -49 -40 -56 -40 -16 0 -39 -45 -32 -64 4 -10 1 -16 -7
-16 -8 0 -24 -11 -37 -25 -13 -13 -30 -25 -37 -25 -23 0 -91 -40 -102 -59 -15
-30 -14 -31 36 -31 27 0 43 -4 39 -10 -3 -5 -24 -10 -46 -10 -40 0 -54 -20
-25 -37 7 -4 16 -27 19 -50 5 -39 3 -43 -16 -42 -12 0 -35 9 -52 19 -16 11
-46 28 -65 39 -45 25 -90 65 -90 80 0 18 -33 13 -81 -12 -72 -37 -119 -51
-132 -38 -6 6 -28 11 -48 11 -21 0 -41 5 -44 10 -8 13 -122 13 -129 1 -4 -5 8
-12 25 -16 40 -9 80 -30 72 -38 -9 -10 -93 -9 -93 1 0 4 -33 5 -72 4 l-73 -4
19 21 c16 17 16 21 4 21 -9 0 -21 -7 -28 -15 -16 -20 -131 -17 -138 3 -2 6 3
12 12 12 8 0 19 7 24 15 7 13 16 14 60 4 29 -6 60 -8 69 -5 9 4 20 1 24 -6 6
-10 11 -10 20 -1 8 8 18 9 31 2 12 -6 18 -6 18 0 0 11 -51 36 -90 44 -14 3
-43 10 -65 16 -22 6 -77 11 -123 11 -46 0 -92 5 -103 10 -27 15 -41 4 -26 -20
10 -17 23 -20 79 -20 77 0 92 -11 47 -34 -41 -21 -89 -21 -89 -1 0 8 -4 15
-10 15 -5 0 -10 -9 -10 -19 0 -11 5 -23 10 -26 6 -3 10 -19 10 -36 0 -17 8
-36 20 -46 12 -11 20 -30 20 -50 0 -24 5 -33 16 -33 10 0 14 6 11 14 -10 24
16 36 80 36 66 0 84 -14 33 -25 -16 -4 -30 -10 -30 -15 0 -4 -18 -11 -40 -15
-48 -8 -60 -22 -26 -31 21 -5 24 -9 16 -30 -11 -29 -3 -31 24 -5 12 11 39 23
61 26 l40 7 -36 -28 c-54 -42 -66 -64 -44 -80 9 -7 14 -17 11 -23 -4 -6 3 -20
15 -32 15 -15 28 -19 46 -14 24 6 25 4 20 -24 -7 -33 8 -43 17 -13 4 10 20 33
37 50 23 23 27 32 15 32 -9 0 -16 4 -16 8 0 15 24 32 47 32 17 0 23 -6 23 -22
0 -12 7 -29 15 -38 8 -9 18 -30 21 -47 5 -25 2 -31 -15 -36 -12 -3 -21 -13
-21 -24 0 -10 -7 -27 -15 -37 -18 -24 -19 -46 -4 -46 14 0 36 25 54 65 l14 30
1 -33 c0 -23 -8 -40 -25 -56 -14 -13 -25 -28 -25 -35 0 -15 27 -14 33 2 3 6 6
-5 6 -25 1 -31 -2 -36 -16 -31 -10 3 -24 13 -32 22 -10 12 -15 13 -18 4 -9
-24 -28 -13 -81 44 -29 32 -47 47 -40 33 7 -14 23 -36 36 -50 25 -27 28 -40 9
-40 -8 0 -20 12 -28 27 -8 16 -27 42 -43 59 -23 24 -33 29 -42 20 -10 -9 -7
-20 13 -54 13 -24 23 -46 20 -48 -11 -11 -57 17 -57 34 0 10 -9 27 -20 37 -19
17 -20 17 -39 -6 -16 -19 -20 -20 -21 -8 0 9 7 22 15 29 8 7 15 27 15 44 -1
24 -8 36 -33 51 -19 12 -33 30 -35 45 -4 26 -33 60 -52 60 -5 0 -10 13 -10 30
0 23 -5 31 -24 36 -21 5 -25 13 -28 51 -2 30 -9 50 -20 57 -23 14 -35 0 -20
-24 7 -11 12 -30 11 -42 l0 -23 -9 21 c-5 12 -13 25 -19 29 -19 11 -12 62 10
76 22 15 18 49 -6 49 -7 0 -15 7 -19 15 -3 8 -12 15 -21 15 -18 0 -19 5 -5 30
7 13 7 21 0 25 -5 3 -10 21 -10 40 0 25 -9 42 -36 69 -20 20 -40 37 -45 37 -5
1 -13 2 -18 3 -5 0 -13 4 -17 9 -4 4 -29 7 -55 7 -37 0 -52 -5 -70 -25 -29
-30 -39 -31 -39 -7 0 11 11 24 25 30 30 14 31 23 6 46 -18 17 -20 17 -29 -1
-14 -24 -28 -9 -37 40 -5 24 -4 37 4 37 6 0 11 -4 11 -9 0 -5 14 -14 31 -21
24 -10 36 -11 50 -2 13 8 20 8 25 1 4 -8 9 -8 17 0 8 8 8 14 -1 23 -7 7 -12
30 -11 53 l1 40 10 -34 c10 -35 43 -70 66 -71 7 0 10 -5 6 -11 -3 -6 -15 -8
-25 -6 -28 7 -81 -21 -77 -42 3 -11 12 -15 33 -13 17 2 32 8 33 13 2 5 20 0
39 -12 31 -19 36 -20 50 -6 19 19 8 40 -18 32 -20 -7 -25 13 -20 79 2 26 0 28
-23 22 -16 -4 -26 -2 -26 5 0 6 9 13 20 16 26 7 21 27 -8 31 -12 2 -22 8 -22
13 0 5 -8 9 -17 10 -15 0 -14 2 3 9 26 10 40 56 23 76 -18 21 -29 17 -29 -12
0 -16 -4 -23 -12 -18 -7 5 -9 0 -6 -14 4 -14 2 -19 -7 -16 -16 6 -26 -30 -18
-67 5 -25 2 -29 -16 -29 -12 0 -21 -6 -21 -15 0 -8 -5 -15 -10 -15 -6 0 -13 7
-16 15 -4 8 -16 15 -29 15 -19 0 -24 9 -37 60 -14 57 -14 59 6 62 31 5 33 36
2 44 -28 7 -39 37 -50 134 -3 30 -13 103 -23 161 -16 100 -16 109 1 180 31
126 86 267 115 289 3 3 15 23 26 45 10 22 37 66 59 98 35 51 43 57 74 57 29 0
34 3 29 20 -6 22 62 96 110 120 16 8 38 22 51 32 13 9 37 20 55 24 18 3 41 13
52 20 11 8 31 14 45 14 14 0 32 5 40 10 19 13 226 6 300 -10z m1385 -871 c37
-17 44 -25 40 -43 -3 -11 -10 -43 -15 -71 -6 -27 -15 -54 -21 -61 -5 -6 -13
-31 -19 -55 -5 -24 -16 -66 -24 -94 -9 -27 -27 -88 -41 -135 -14 -47 -33 -91
-42 -97 -21 -16 -117 -18 -108 -3 4 6 21 8 41 4 32 -6 34 -5 34 21 0 14 -9 54
-19 88 -22 68 -41 158 -48 224 -5 43 -3 47 50 104 15 16 27 34 27 39 0 10 85
100 94 100 4 0 26 -9 51 -21z m-2360 -231 c11 -68 73 -347 90 -408 21 -70 38
-110 47 -110 5 0 8 -11 8 -25 0 -28 -7 -31 -29 -11 -9 8 -47 31 -86 51 -38 20
-81 48 -94 63 l-23 26 -33 -40 c-19 -21 -42 -54 -52 -73 -10 -19 -37 -64 -60
-99 -42 -64 -43 -64 -53 -38 -5 15 -13 134 -16 264 -6 216 -6 240 10 253 36
30 42 34 71 49 17 8 34 21 38 27 4 7 15 13 22 13 8 0 15 5 15 10 0 6 7 10 15
10 9 0 18 7 21 15 4 8 10 15 15 15 4 0 20 11 35 25 38 35 51 31 59 -17z m3865
-49 c0 -5 5 -9 12 -9 6 0 19 -6 27 -13 18 -15 184 -87 201 -87 12 0 17 -4 78
-58 l42 -38 0 -83 0 -83 -32 6 c-92 19 -94 19 -122 -9 -14 -14 -26 -29 -26
-32 0 -3 -16 -25 -35 -49 -19 -23 -35 -47 -35 -53 0 -6 -4 -11 -9 -11 -5 0
-12 -8 -15 -17 -3 -10 -21 -34 -38 -54 -67 -74 -107 -149 -80 -149 14 0 35 23
94 102 53 72 95 117 111 117 12 1 17 9 17 29 0 18 11 40 32 61 26 27 38 32 63
28 53 -9 101 -24 151 -47 27 -13 60 -27 74 -33 14 -5 37 -16 52 -23 14 -8 33
-14 41 -14 27 0 28 -34 2 -133 -28 -108 -33 -171 -12 -165 6 3 17 24 24 49 6
24 22 87 36 139 l26 95 -34 33 c-18 17 -40 32 -47 32 -8 0 -22 6 -33 14 -11 7
-33 16 -50 20 -16 4 -48 16 -70 27 -39 20 -40 21 -36 66 2 35 10 51 35 74 17
16 36 29 41 29 6 0 30 21 55 46 39 39 49 44 75 39 17 -3 35 -12 41 -20 6 -8
17 -15 23 -15 7 0 25 -7 40 -14 23 -12 33 -32 60 -112 17 -53 38 -109 45 -123
47 -90 97 -244 83 -253 -7 -4 -19 -12 -27 -17 -63 -43 -92 -61 -99 -61 -5 0
-14 -6 -20 -14 -7 -8 -24 -17 -39 -21 -23 -6 -49 -16 -137 -55 -11 -5 -31 -12
-45 -16 -14 -4 -27 -9 -30 -13 -4 -5 -183 -64 -275 -90 -240 -69 -442 -116
-586 -137 l-46 -6 0 32 c0 25 -8 41 -36 67 -20 18 -37 36 -37 40 0 3 -7 11
-15 17 -11 8 -17 37 -21 96 -6 95 -22 162 -37 153 -6 -3 -7 -51 -2 -127 l6
-121 35 -32 c19 -18 34 -36 34 -42 0 -5 4 -11 8 -13 9 -3 52 -63 52 -71 0 -7
-48 -17 -133 -27 -39 -5 -128 -16 -197 -25 -222 -29 -282 -35 -457 -41 l-172
-6 10 37 c6 20 8 39 5 42 -6 7 -26 -41 -26 -63 0 -8 -4 -14 -10 -14 -14 0 -12
22 5 63 8 20 15 42 15 49 -1 22 -23 -24 -36 -72 l-11 -45 -99 -6 c-133 -9
-427 -10 -490 -3 l-50 6 3 87 c2 47 11 149 19 226 l14 139 -25 21 c-13 11 -42
31 -65 45 -41 25 -51 40 -25 40 8 0 19 17 25 43 6 23 20 60 31 82 10 22 19 46
19 53 0 7 10 31 23 52 17 32 29 41 57 45 19 3 54 10 78 15 23 6 53 10 65 10
13 0 27 4 33 9 9 9 108 29 191 38 l42 5 14 -49 c17 -55 47 -120 81 -178 47
-79 106 -203 106 -224 0 -11 -8 -53 -19 -93 -52 -206 -73 -326 -53 -314 12 7
20 31 50 151 11 44 28 107 36 141 19 73 20 145 4 192 -12 32 -11 36 12 51 14
8 43 34 65 57 22 22 53 49 68 59 25 16 29 16 45 2 9 -9 104 -102 211 -207 190
-187 249 -228 177 -123 -30 44 -34 55 -26 84 18 72 39 176 45 221 8 58 18 65
122 78 43 6 94 15 113 20 19 6 57 10 84 10 27 0 64 5 83 12 18 6 35 9 39 5 4
-3 10 -58 14 -122 8 -110 18 -145 44 -145 6 0 28 -11 48 -25 20 -14 42 -25 48
-25 6 0 25 -13 43 -30 31 -28 32 -34 42 -142 9 -97 13 -113 28 -116 17 -4 18
4 15 122 -3 136 -6 142 -73 176 -16 8 -36 21 -43 28 -7 6 -16 12 -20 12 -4 0
-24 15 -44 33 -37 33 -37 33 -47 145 -5 63 -15 120 -22 128 -12 15 -28 15
-104 2 -16 -2 -19 2 -17 22 2 14 12 39 21 55 10 17 21 43 25 59 11 43 28 57
51 40 18 -13 18 -15 0 -48 -40 -74 18 -46 74 36 18 26 44 59 57 73 13 14 49
57 79 94 43 53 60 68 75 64 11 -3 20 -9 20 -14z m-4405 -199 c3 -5 17 -10 30
-10 13 0 36 -7 52 -15 61 -31 102 -47 112 -40 8 4 11 -32 11 -113 0 -65 7
-164 15 -220 l15 -101 -30 -44 c-16 -25 -30 -51 -30 -59 0 -8 -5 -19 -10 -24
-14 -14 -2 -44 16 -44 7 0 16 11 20 25 3 13 12 29 19 35 8 6 17 25 20 42 4 17
31 67 59 112 29 44 55 86 57 91 2 6 20 36 39 68 32 53 60 71 75 48 3 -5 35
-25 72 -43 71 -36 119 -77 134 -115 5 -13 9 -79 10 -146 0 -134 9 -205 24
-197 12 6 12 25 3 225 l-7 150 22 -75 c22 -72 31 -94 85 -208 23 -49 24 -54 8
-71 -9 -10 -35 -23 -59 -30 -59 -17 -107 -40 -107 -51 0 -12 45 -13 68 -1 9 5
44 21 77 35 33 15 67 31 75 37 41 26 94 46 112 41 27 -7 88 -71 88 -93 0 -20
28 -98 40 -112 9 -11 38 2 42 19 2 10 7 11 18 4 13 -9 13 -12 -2 -21 -10 -5
-18 -17 -18 -26 0 -11 -6 -14 -22 -9 -13 4 -50 11 -83 16 -126 20 -254 48
-395 85 -58 15 -130 33 -160 40 -118 27 -187 48 -235 70 -27 13 -83 38 -122
56 -40 18 -73 36 -73 41 0 4 -9 8 -20 8 -12 0 -31 11 -43 24 -12 13 -32 26
-45 30 -27 9 -45 49 -61 141 -7 39 -19 88 -27 110 -8 22 -18 70 -21 106 -5 60
-3 69 16 85 11 10 21 26 21 35 0 9 9 24 19 33 11 10 22 28 25 42 5 18 13 24
36 24 16 0 32 -4 35 -10z m2613 -4 c-10 -7 -18 -18 -18 -25 0 -6 -4 -11 -9
-11 -5 0 -23 -3 -41 -7 -30 -5 -32 -4 -22 13 10 18 62 42 92 43 12 0 11 -2 -2
-13z m72 -17 c-11 -19 -60 -27 -60 -9 0 12 52 40 62 33 5 -2 3 -13 -2 -24z
m-172 -55 c18 -5 20 -9 11 -20 -15 -18 -29 -18 -29 0 0 10 -7 12 -22 8 -14 -3
-19 -2 -14 6 8 13 20 15 54 6z m120 -21 c-2 -12 -14 -19 -38 -21 -34 -4 -34
-4 -16 17 24 26 59 28 54 4z m-183 -43 c-3 -5 -14 -10 -23 -10 -15 0 -15 2 -2
10 20 13 33 13 25 0z m-1632 -78 c-21 -13 -34 -61 -22 -83 8 -16 19 -20 44
-17 19 1 40 -3 47 -10 6 -6 20 -12 30 -12 20 0 25 -26 6 -33 -21 -6 -48 4 -48
19 0 19 -19 27 -34 15 -11 -9 -20 -5 -40 19 -14 18 -26 36 -26 41 0 5 -9 9
-20 9 -29 0 -24 25 8 39 15 8 34 17 42 21 18 9 29 2 13 -8z m1507 -10 c0 -4
-20 -14 -44 -23 -31 -11 -43 -12 -40 -4 3 7 20 17 37 23 41 13 47 14 47 4z
m-1410 -26 c0 -8 6 -16 13 -19 6 -2 8 -8 4 -13 -4 -5 -12 -2 -17 6 -8 12 -13
13 -30 2 -17 -11 -20 -10 -20 6 0 10 3 22 7 25 12 13 43 7 43 -7z m440 -26
c11 -7 6 -10 -20 -10 -26 0 -31 3 -20 10 8 5 17 10 20 10 3 0 12 -5 20 -10z
m2030 -22 c0 -34 -11 -68 -21 -68 -10 0 -12 73 -2 83 13 14 23 7 23 -15z
m-2626 -24 c9 -23 7 -54 -2 -54 -5 0 -13 16 -19 35 -9 28 -8 35 2 35 7 0 16
-7 19 -16z m1251 -38 c16 -14 45 -33 64 -43 20 -10 38 -20 41 -23 3 -3 44 -32
92 -64 110 -73 141 -101 134 -124 -2 -9 -7 -89 -11 -177 -4 -88 -11 -177 -17
-197 l-11 -38 -66 0 c-180 0 -383 14 -388 26 -2 7 2 28 10 46 9 18 19 44 23
58 3 14 19 52 34 85 60 130 73 165 67 172 -13 12 -28 -13 -86 -143 -31 -71
-66 -148 -76 -171 l-20 -42 -65 -1 c-106 0 -110 3 -110 69 1 55 1 56 16 29 13
-26 34 -38 34 -21 0 11 -48 140 -71 190 -10 24 -19 48 -19 53 0 6 -7 24 -15
41 -14 27 -14 32 0 51 8 13 15 30 15 39 0 9 9 24 19 34 23 20 131 75 149 75 6
0 12 5 12 10 0 6 9 10 20 10 20 0 151 50 160 61 3 3 12 9 20 12 8 3 15 6 16 6
0 1 14 -10 29 -23z m-691 -22 c9 -3 16 -10 16 -15 0 -11 -65 -39 -90 -39 -17
0 -34 36 -24 52 6 9 75 11 98 2z m416 -13 c-19 -10 -51 -21 -70 -25 l-35 -6
30 12 c17 6 39 17 50 24 11 8 29 14 40 14 14 0 11 -5 -15 -19z m-910 -12 c0
-29 -18 -59 -35 -59 -8 0 -15 7 -15 15 0 8 7 15 15 15 9 0 15 9 15 25 0 14 5
25 10 25 6 0 10 -9 10 -21z m660 -9 c11 -7 8 -10 -13 -15 -15 -4 -27 -11 -27
-16 0 -14 -72 -10 -100 6 l-25 13 25 10 c56 22 102 22 140 2z m98 4 c36 -10
25 -24 -19 -24 -46 0 -51 -23 -6 -28 32 -4 34 -20 7 -55 -11 -14 -20 -30 -20
-36 0 -6 -12 -11 -26 -11 l-26 0 27 36 c15 19 25 36 24 38 -2 1 -19 8 -37 16
-32 12 -32 13 -12 27 11 8 20 21 20 29 0 15 28 18 68 8z m-669 -25 c-17 -17
-23 -19 -30 -8 -15 23 -10 29 21 29 l30 0 -21 -21z m-49 -34 c0 -8 -4 -15 -9
-15 -13 0 -22 16 -14 24 11 11 23 6 23 -9z m120 -5 c0 -5 -2 -10 -4 -10 -3 0
-8 5 -11 10 -3 6 -1 10 4 10 6 0 11 -4 11 -10z m-50 -30 c0 -5 7 -10 15 -10
18 0 19 -9 1 -33 -13 -16 -14 -16 -20 8 -8 31 -24 32 -36 3 -10 -26 -13 -14
-4 20 6 22 44 32 44 12z m535 -2 c33 2 37 0 22 -9 -25 -15 -127 -25 -127 -12
0 13 42 32 55 25 5 -3 28 -5 50 -4z m-615 -34 c0 -14 -27 -31 -35 -22 -2 2 -2
13 1 25 7 24 34 21 34 -3z m150 -21 c0 -5 -4 -15 -10 -23 -11 -18 -25 -7 -17
15 6 15 27 21 27 8z m440 -28 c-13 -14 -30 -25 -37 -25 -11 0 -10 5 3 25 9 14
26 25 37 25 20 0 20 -1 -3 -25z m65 -15 c-3 -5 -20 -10 -36 -10 -18 0 -28 4
-24 10 3 6 20 10 36 10 18 0 28 -4 24 -10z m-611 -15 c-6 -16 -44 -21 -44 -7
0 14 12 22 31 22 12 0 16 -5 13 -15z m64 -13 c2 -7 -3 -12 -12 -12 -9 0 -16 7
-16 16 0 17 22 14 28 -4z m83 -12 c11 0 19 -7 19 -16 0 -19 -37 -11 -60 13
-13 14 -13 15 3 9 10 -3 27 -6 38 -6z m415 -9 c-22 -24 -83 -57 -92 -49 -3 4
-4 18 0 32 6 25 22 32 80 35 28 1 28 0 12 -18z m-566 -25 c0 -3 -4 -8 -10 -11
-5 -3 -10 -1 -10 4 0 6 5 11 10 11 6 0 10 -2 10 -4z m210 -16 c0 -10 8 -24 18
-29 23 -14 6 -14 -19 -1 -20 11 -27 50 -9 50 6 0 10 -9 10 -20z m55 -90 c3 -6
-4 -10 -17 -10 -18 0 -20 2 -8 10 19 12 18 12 25 0z m55 -55 c0 -8 -4 -15 -10
-15 -5 0 -10 7 -10 15 0 8 5 15 10 15 6 0 10 -7 10 -15z m140 -45 c9 -16 8
-18 -5 -14 -8 4 -15 12 -15 20 0 20 7 17 20 -6z m45 -50 c10 -11 15 -23 12
-27 -4 -3 -7 -2 -7 4 0 6 -9 13 -20 16 -11 3 -20 10 -20 16 0 17 15 13 35 -9z
m3942 -1832 c-2 -13 -4 -5 -4 17 -1 22 1 32 4 23 2 -10 2 -28 0 -40z m-10
-120 c-2 -18 -4 -6 -4 27 0 33 2 48 4 33 2 -15 2 -42 0 -60z m-10 -130 c-2
-13 -4 -5 -4 17 -1 22 1 32 4 23 2 -10 2 -28 0 -40z"/>
<path d="M1990 12085 c0 -8 7 -15 15 -15 8 0 15 -4 15 -10 0 -5 10 -10 23 -10
22 1 22 1 2 16 -39 30 -55 36 -55 19z"/>
<path d="M1976 12035 c4 -8 11 -15 18 -15 6 0 22 -3 36 -7 l25 -6 -27 22 c-31
25 -60 28 -52 6z"/>
<path d="M1630 11985 c-7 -8 -23 -15 -36 -15 -35 0 -73 -41 -74 -78 0 -18 0
-44 -1 -59 0 -16 10 -47 23 -70 30 -53 119 -186 130 -194 4 -3 19 -20 33 -39
l25 -34 1 35 c1 19 4 45 8 58 6 21 9 18 30 -30 13 -30 34 -78 47 -108 28 -62
29 -67 10 -49 -7 7 -23 20 -35 28 -11 8 -21 18 -21 23 0 12 -30 40 -36 34 -8
-7 77 -114 96 -122 8 -3 19 0 24 8 8 12 12 11 26 -3 17 -17 53 -120 45 -128
-2 -2 -17 11 -34 30 -17 18 -28 25 -25 16 3 -10 24 -37 46 -60 l40 -43 -5 38
-6 38 42 -47 c23 -26 46 -56 52 -68 8 -18 10 -13 13 27 3 52 20 61 49 27 20
-24 33 -26 33 -6 0 8 -9 18 -20 21 -11 3 -20 10 -20 15 0 4 -9 10 -20 13 -22
6 -50 62 -50 102 0 15 -4 23 -10 20 -10 -6 -59 24 -60 38 0 4 -9 18 -21 30
l-21 22 7 -37 c6 -32 5 -36 -12 -32 -32 9 -66 74 -70 135 -2 31 1 67 5 79 7
20 12 13 31 -46 25 -80 45 -117 37 -69 -7 41 7 150 19 148 6 -1 15 -9 20 -19
6 -10 22 -32 37 -49 28 -30 38 -75 17 -75 -6 0 -8 -9 -3 -22 4 -13 11 -39 15
-58 l7 -35 1 35 1 34 17 -24 c9 -14 25 -31 34 -37 26 -19 56 -73 63 -115 5
-27 11 -36 21 -31 29 11 43 -17 50 -95 3 -42 10 -86 15 -97 5 -11 14 -33 20
-50 9 -23 13 -26 20 -15 7 10 9 -4 9 -45 -1 -55 -1 -58 -11 -30 -6 17 -14 32
-17 35 -4 3 -15 34 -25 70 -10 36 -26 85 -36 110 -10 25 -21 54 -24 64 -4 10
-9 16 -12 13 -3 -3 -1 -22 6 -41 6 -20 9 -42 7 -49 -3 -6 -6 -2 -6 10 -1 12
-6 25 -12 29 -8 5 -9 -8 -4 -45 8 -61 -3 -66 -41 -16 -28 38 -44 44 -44 19 0
-27 -33 -11 -67 34 -18 24 -33 38 -33 31 0 -17 40 -79 51 -79 17 0 49 -34 49
-52 0 -17 55 -78 70 -78 4 0 15 -21 25 -47 20 -55 61 -102 89 -103 14 0 17 5
12 25 -16 68 -18 80 -7 65 6 -8 11 -25 11 -37 0 -12 4 -23 9 -25 5 -1 13 -15
16 -30 6 -24 4 -28 -14 -28 -37 0 -19 -40 21 -44 23 -3 24 0 22 48 -3 94 -33
380 -49 466 -9 47 -20 132 -24 190 -4 58 -13 115 -19 127 -7 12 -12 42 -12 67
0 26 -4 54 -9 64 -6 9 -13 38 -16 64 -3 26 -11 51 -17 54 -7 5 -9 -2 -6 -19 3
-15 2 -24 -3 -21 -4 2 -11 26 -14 52 -9 65 -24 92 -51 92 -13 0 -26 -5 -30
-11 -3 -6 -14 2 -25 20 -21 34 -40 39 -59 16 -11 -14 -14 -13 -24 7 -7 14 -22
24 -39 26 -22 3 -29 -2 -37 -24 l-10 -26 -23 33 c-12 19 -32 35 -44 37 -17 3
-23 -5 -34 -42 -10 -35 -15 -42 -22 -30 -5 9 -7 24 -4 34 8 33 -79 54 -103 25z
m74 -42 c15 -20 20 -44 20 -92 1 -68 -11 -89 -29 -53 -6 11 -15 26 -21 33 -17
23 -36 99 -29 119 9 28 36 24 59 -7z m121 3 c12 -18 15 -45 13 -107 -2 -48 -7
-84 -13 -84 -21 1 -53 80 -54 132 -2 84 21 109 54 59z m107 -31 c5 -20 1 -56
-11 -105 -10 -41 -19 -64 -20 -49 -1 14 -5 29 -11 35 -14 14 -24 97 -16 129 9
37 47 31 58 -10z m-326 -31 c15 -36 17 -97 5 -129 -8 -19 -8 -19 -20 0 -11 18
-12 17 -6 -10 l6 -30 -21 30 c-11 17 -20 41 -19 55 l0 25 11 -25 c6 -14 12
-20 15 -13 2 6 -3 25 -11 42 -19 36 -21 88 -3 94 18 7 28 -2 43 -39z m418 -16
c9 -56 2 -128 -13 -128 -24 0 -45 162 -24 184 16 15 29 -4 37 -56z m76 3 c12
-24 13 -121 1 -139 -15 -24 -51 40 -51 90 0 61 28 88 50 49z m-330 -66 c0 -7
12 -34 26 -60 19 -34 26 -59 25 -93 -1 -46 -18 -131 -20 -103 -1 8 -7 22 -14
30 -24 29 -47 122 -47 193 0 62 2 69 15 58 8 -7 15 -18 15 -25z m-110 12 c0
-7 5 -18 11 -24 33 -33 72 -214 49 -228 -24 -15 -75 64 -86 133 -8 48 3 132
17 132 5 0 9 -6 9 -13z m329 -94 c17 -50 31 -100 31 -110 0 -14 2 -15 9 -4 7
11 10 11 15 0 3 -8 4 2 0 21 -16 94 -16 110 -5 110 6 0 11 -5 11 -10 0 -6 11
-22 24 -35 29 -29 44 -132 25 -164 -10 -15 -10 -28 -1 -59 14 -45 16 -82 5
-82 -12 1 -47 32 -66 60 -11 16 -17 44 -17 83 0 32 -4 56 -8 53 -13 -8 -26 5
-66 62 -26 37 -34 57 -27 65 5 7 15 34 22 60 6 26 13 46 14 45 2 -2 17 -44 34
-95z m-94 -18 c13 -30 16 -47 9 -74 -5 -19 -14 -36 -19 -38 -17 -5 -48 109
-40 148 14 70 18 77 25 38 4 -20 15 -53 25 -74z m270 -27 c19 -65 20 -108 1
-108 -24 0 -54 108 -41 149 9 31 22 17 40 -41z m35 -208 c17 -60 14 -68 -21
-50 -28 15 -49 63 -49 112 l0 42 30 -34 c16 -19 34 -51 40 -70z m-14 -103 c9
-15 18 -51 21 -80 l5 -52 -40 40 c-39 38 -41 43 -42 104 l0 64 21 -24 c11 -13
27 -37 35 -52z m-185 -53 c9 -16 20 -51 23 -79 l6 -50 -37 41 c-36 39 -68 118
-56 137 8 12 46 -17 64 -49z m268 -256 c1 -47 -13 -65 -22 -30 -16 56 -28 154
-22 169 11 25 44 -78 44 -139z m-84 3 c8 -16 17 -56 20 -88 l6 -58 -25 45
c-22 39 -37 130 -21 130 2 0 11 -13 20 -29z m-44 -58 c36 -54 19 -58 -34 -9
-25 22 -35 39 -31 50 5 14 9 14 26 1 12 -7 29 -27 39 -42z m64 -97 c1 0 7 -14
13 -30 18 -42 6 -45 -28 -7 -36 39 -38 55 -7 45 12 -3 22 -7 22 -8z"/>
<path d="M1106 11904 c-3 -9 -4 -20 0 -25 6 -10 34 14 34 30 0 17 -27 13 -34
-5z"/>
<path d="M1180 11856 c-11 -24 -23 -62 -26 -83 l-6 -38 21 30 c11 17 21 39 21
50 0 11 7 29 15 39 8 11 15 26 15 33 0 27 -19 12 -40 -31z"/>
<path d="M1096 11825 c-9 -24 -7 -45 3 -45 12 0 22 43 12 53 -5 5 -11 1 -15
-8z"/>
<path d="M2486 11815 c7 -16 48 -45 65 -45 15 0 -30 44 -53 53 -12 4 -15 2
-12 -8z"/>
<path d="M2400 11807 c0 -15 120 -91 129 -81 3 4 0 9 -7 11 -7 3 -18 11 -25
18 -7 7 -27 20 -45 29 -18 9 -32 21 -32 26 0 6 -4 10 -10 10 -5 0 -10 -6 -10
-13z"/>
<path d="M1200 11749 c0 -11 4 -18 10 -14 5 3 7 12 3 20 -7 21 -13 19 -13 -6z"/>
<path d="M1025 11741 c-3 -5 -1 -12 5 -16 5 -3 10 1 10 9 0 18 -6 21 -15 7z"/>
<path d="M1070 11720 c0 -11 4 -20 9 -20 13 0 32 26 24 33 -13 14 -33 6 -33
-13z"/>
<path d="M1225 11719 c-4 -11 -4 -23 0 -27 7 -7 25 17 25 36 0 20 -18 14 -25
-9z"/>
<path d="M1370 11717 c0 -8 12 -18 28 -22 34 -8 112 -83 112 -107 0 -40 -100
-10 -145 43 -20 25 -25 40 -21 61 3 15 1 28 -4 28 -6 0 -10 -20 -10 -45 0 -25
-9 -64 -22 -90 l-22 -45 24 -25 c23 -25 23 -25 2 -25 -11 0 -24 -4 -27 -10 -4
-6 6 -10 23 -10 16 0 51 -11 77 -25 27 -13 51 -22 54 -19 3 3 -1 9 -9 14 -11
7 -12 12 -3 21 8 8 19 7 45 -7 18 -11 35 -22 36 -26 2 -5 10 -8 18 -8 8 0 17
-7 20 -15 4 -8 11 -15 16 -15 11 0 47 -40 48 -52 1 -22 -104 23 -123 52 -6 11
-16 20 -21 20 -6 0 -5 -5 2 -12 23 -23 11 -28 -71 -28 -89 0 -107 8 -107 47 0
13 -4 23 -10 23 -18 0 -11 -28 15 -58 24 -29 33 -48 17 -38 -4 2 -14 1 -22 -4
-11 -7 -12 -18 -4 -52 9 -40 6 -81 -10 -119 -4 -9 2 -25 17 -41 16 -17 26 -43
30 -78 4 -32 13 -57 23 -65 13 -9 16 -21 11 -49 -6 -40 8 -76 30 -76 8 0 13
-12 13 -28 0 -39 17 -52 66 -52 24 0 46 -4 49 -10 3 -5 16 -10 28 -10 12 0 31
-7 41 -15 11 -8 34 -15 50 -15 39 0 185 -46 202 -63 4 -4 15 -7 25 -7 9 0 40
-11 67 -25 42 -21 64 -25 140 -25 49 0 103 3 120 6 l31 6 -20 40 c-15 30 -23
37 -33 29 -9 -8 -22 -2 -49 23 -44 40 -49 66 -7 34 17 -12 30 -25 30 -30 0 -4
5 -8 12 -8 6 0 3 9 -7 20 -30 33 -8 36 26 4 34 -32 72 -98 62 -108 -4 -3 -1
-6 5 -6 34 0 1 74 -59 131 -27 27 -49 53 -49 59 0 15 -43 66 -76 92 -35 28
-30 16 21 -43 47 -55 56 -79 30 -79 -8 0 -15 4 -15 10 0 9 -19 35 -48 65 -7 8
-17 24 -22 37 -10 22 -10 21 -5 -4 6 -31 -14 -38 -41 -15 -51 41 -74 69 -74
86 0 20 -48 109 -79 146 -15 18 -15 19 2 6 30 -24 18 4 -17 38 -37 36 -48 61
-36 81 6 10 14 8 33 -6 41 -31 71 -85 70 -126 0 -26 4 -38 13 -38 8 0 14 7 14
16 0 14 2 14 15 1 8 -9 18 -17 22 -19 16 -6 63 -70 63 -84 0 -24 -18 -16 -65
31 -62 62 -57 38 6 -29 43 -46 54 -53 69 -44 31 20 6 65 -99 176 -23 24 -41
50 -41 57 0 7 -22 36 -50 64 -27 28 -50 55 -50 60 0 5 -7 15 -16 22 -9 7 -20
23 -25 36 -5 13 -15 23 -24 23 -8 0 -15 5 -15 10 0 6 -6 10 -14 10 -7 0 -26
26 -41 57 -25 54 -81 134 -98 141 -4 2 -21 22 -37 45 -50 71 -67 87 -99 93
-24 5 -31 3 -31 -9z m0 -137 c0 -5 7 -10 15 -10 8 0 15 -4 15 -9 0 -4 18 -20
40 -35 59 -39 52 -50 -27 -43 -47 5 -72 12 -80 24 -14 18 -17 65 -6 76 10 11
43 8 43 -3z m134 -29 c3 -4 18 -11 34 -14 43 -9 117 -127 79 -127 -17 0 -97
56 -117 83 -8 11 -22 27 -32 37 -9 10 -14 21 -10 24 8 9 40 7 46 -3z m183
-198 c38 -36 83 -94 83 -107 0 -11 -35 -4 -65 13 -28 16 -105 107 -105 124 0
20 51 3 87 -30z m-202 -23 c3 -5 26 -18 50 -29 25 -11 45 -25 45 -30 0 -17
-96 -13 -110 4 -15 18 -30 20 -30 4 0 -6 9 -13 20 -16 43 -11 16 -23 -54 -23
-69 0 -76 2 -95 26 -24 30 -24 33 -11 54 7 11 14 12 32 4 36 -17 91 -34 95
-30 2 2 -11 13 -29 25 l-33 21 57 0 c31 0 60 -4 63 -10z m212 -92 c40 -32 73
-66 73 -74 0 -8 -2 -14 -5 -14 -12 0 -125 64 -125 71 0 4 -20 26 -45 50 -25
24 -45 46 -45 50 0 18 79 -27 147 -83z m-79 -26 c20 -15 54 -43 75 -62 62 -58
42 -86 -22 -30 -18 17 -37 30 -41 30 -4 0 -22 15 -42 33 -19 17 -43 37 -54 44
-17 11 -16 12 14 12 20 1 46 -9 70 -27z m-57 -25 c17 -22 17 -22 -10 -31 -21
-6 -37 -4 -57 8 -16 8 -37 18 -46 22 -9 3 -19 13 -22 21 -10 26 112 8 135 -20z
m-186 13 c3 -5 15 -10 25 -10 23 0 78 -45 67 -56 -4 -4 -34 -10 -67 -12 -54
-4 -62 -2 -80 19 -10 13 -19 34 -20 47 0 19 5 22 34 22 19 0 38 -4 41 -10z
m248 -79 c25 -11 54 -29 65 -41 12 -13 32 -22 46 -22 14 0 35 -11 47 -24 12
-13 17 -24 11 -24 -6 0 -14 5 -17 10 -9 15 -25 12 -25 -5 0 -13 -7 -15 -37 -9
-21 4 -45 13 -54 20 -8 8 -21 14 -27 14 -7 0 -12 5 -12 10 0 6 -7 10 -15 10
-9 0 -18 7 -21 15 -4 8 -11 15 -18 15 -6 0 -20 7 -31 16 -17 13 -18 16 -5 24
22 14 43 12 93 -9z m187 -40 c60 -59 72 -81 47 -81 -16 0 -87 59 -87 72 0 5
-9 18 -20 30 -11 12 -20 25 -20 30 0 19 24 4 80 -51z m-233 -24 c17 -12 29
-25 27 -29 -7 -10 -91 -10 -96 0 -1 4 -20 21 -40 39 -20 17 -34 33 -31 36 8 9
106 -23 140 -46z m-179 25 c9 -5 30 -15 47 -23 48 -23 43 -42 -15 -56 -58 -14
-85 -4 -94 33 -12 46 17 67 62 46z m285 -95 c16 -12 42 -33 58 -45 16 -13 29
-30 29 -37 0 -7 6 -15 13 -18 10 -4 10 -7 0 -18 -10 -9 -13 -10 -13 -1 0 7 -6
12 -13 12 -28 0 -88 52 -94 81 -3 16 -9 29 -14 29 -5 0 -9 5 -9 10 0 15 12 12
43 -13z m-53 -5 c32 -26 18 -42 -38 -43 -35 0 -42 -3 -27 -9 11 -5 36 -9 56
-9 24 -1 45 -9 63 -26 15 -14 31 -25 35 -25 16 0 81 -67 81 -83 0 -21 -3 -21
-40 -2 -17 9 -30 23 -30 32 0 16 -29 47 -72 77 -25 18 -148 23 -148 7 0 -13
-83 -25 -116 -17 -20 5 -25 12 -22 34 3 24 8 27 47 30 23 2 57 -1 75 -7 l31
-11 -24 20 c-13 11 -32 20 -42 20 -27 0 -24 18 4 23 63 12 145 7 167 -11z
m200 -19 c30 -28 50 -31 25 -3 -10 11 -16 22 -13 25 8 9 68 -73 67 -92 0 -14
-2 -15 -6 -3 -4 8 -12 21 -20 29 -12 11 -13 10 -7 -13 4 -18 2 -26 -6 -26 -15
0 -77 37 -104 62 -11 10 -23 18 -28 18 -4 0 -8 5 -8 10 0 6 9 10 20 10 11 0
20 4 20 10 0 14 31 0 60 -27z m-157 -98 c15 -14 27 -34 27 -44 0 -22 13 -33
60 -51 19 -8 41 -19 48 -25 32 -26 42 -37 37 -44 -5 -10 -75 11 -75 21 0 5 -9
8 -20 8 -13 0 -20 7 -20 19 0 23 -40 51 -86 58 -19 3 -34 11 -34 17 0 6 -9 17
-20 24 -11 7 -20 8 -20 3 0 -6 5 -13 10 -16 27 -17 2 -25 -76 -25 -83 0 -85 1
-82 23 3 20 9 22 66 25 51 2 63 6 58 17 -4 12 5 15 47 15 42 0 58 -5 80 -25z
m274 1 c-5 -12 42 -56 60 -56 13 0 43 -39 43 -55 0 -25 -93 20 -138 68 -16 17
-42 23 -42 11 0 -4 11 -17 25 -30 14 -13 25 -27 25 -32 0 -19 -79 10 -110 41
-32 31 -32 31 -10 41 15 7 28 6 42 -3 13 -8 23 -9 27 -3 3 5 19 10 36 10 16 0
31 5 33 11 2 6 6 11 9 11 3 0 3 -6 0 -14z m-295 -75 c13 -5 31 -12 41 -15 17
-6 17 -7 2 -22 -14 -15 -22 -15 -58 -4 -75 22 -97 32 -91 41 7 12 77 12 106 0z
m256 -73 c2 -4 9 -8 16 -8 7 0 23 -14 35 -31 l23 -31 -33 7 c-19 4 -35 11 -37
16 -2 5 -9 9 -15 9 -7 0 -20 14 -29 30 l-17 30 27 -6 c15 -4 29 -11 30 -16z
m126 -31 c25 -23 46 -45 46 -48 0 -4 -20 0 -45 8 -28 10 -54 28 -70 49 l-26
34 25 0 c15 0 42 -16 70 -43z m62 8 c4 -8 10 -15 15 -15 9 0 49 -36 49 -45 0
-9 -20 -5 -33 5 -7 5 -27 23 -46 40 -30 27 -31 30 -12 30 12 0 24 -7 27 -15z"/>
<path d="M2325 11698 c-17 -20 -18 -36 -15 -138 2 -63 4 -139 4 -168 1 -28 4
-52 8 -52 3 0 4 -26 1 -59 -4 -38 -2 -61 6 -65 6 -4 11 -36 11 -77 0 -39 5
-80 12 -92 6 -12 15 -53 19 -92 4 -38 13 -115 19 -170 6 -55 16 -105 22 -112
19 -24 55 -15 79 20 13 17 27 34 31 35 4 2 8 9 8 17 0 7 14 19 32 26 32 13 68
43 68 57 0 4 18 20 40 36 28 21 40 37 40 55 1 14 9 60 19 101 15 64 23 78 51
98 18 12 34 21 35 20 1 -2 0 -22 -4 -46 -4 -29 -16 -53 -37 -75 -27 -28 -50
-67 -40 -67 18 0 120 68 156 104 26 26 53 107 40 120 -7 7 -10 3 -10 -12 0
-32 -28 -83 -59 -109 -14 -12 -29 -22 -32 -23 -9 0 8 87 23 117 11 22 25 34
56 50 7 3 -31 53 -40 53 -5 0 -12 -9 -15 -20 -3 -11 -9 -20 -14 -20 -5 0 -9
-5 -9 -11 0 -16 -39 -48 -67 -55 -23 -6 -46 -36 -48 -64 -1 -8 -2 -34 -3 -57
-2 -33 -9 -50 -33 -75 -21 -23 -29 -27 -25 -14 4 11 11 40 17 65 6 25 17 54
26 63 9 10 13 21 10 24 -11 12 -37 -5 -47 -30 -5 -14 -24 -40 -41 -58 l-32
-33 6 67 c6 67 20 103 44 112 9 4 10 -1 3 -20 -13 -32 -13 -71 -1 -58 5 5 16
32 25 59 11 35 26 57 49 73 41 27 51 28 37 3 -5 -11 -10 -26 -10 -33 0 -7 6
-4 12 7 6 11 29 39 52 63 22 24 33 40 24 36 -15 -5 -18 -1 -18 22 0 38 -37 77
-61 63 -16 -8 -18 -6 -13 18 8 39 -28 73 -56 55 -29 -18 -40 -15 -40 12 0 16
-11 32 -32 47 -18 13 -46 38 -61 56 -16 18 -35 33 -43 33 -9 0 -14 11 -14 30
0 25 -4 30 -24 30 -39 0 -55 10 -72 46 -19 39 -42 43 -69 12z m58 -31 c12 -30
-30 -137 -54 -137 -12 0 -12 92 1 124 10 28 44 36 53 13z m81 -84 c-28 -67
-52 -108 -60 -106 -16 4 -15 70 0 107 13 30 20 36 45 36 l31 0 -16 -37z m-84
-86 c-1 -37 -23 -88 -34 -76 -12 14 -12 90 1 108 20 30 33 17 33 -32z m85 2
c-8 -23 -15 -49 -15 -58 0 -9 -16 -34 -35 -56 l-34 -40 -1 48 c0 38 3 47 18
47 10 0 25 16 37 38 37 72 51 82 30 21z m74 32 c13 -8 13 -16 1 -53 -17 -53
-50 -94 -62 -76 -11 18 -10 54 4 99 11 39 28 48 57 30z m32 -80 c-22 -40 -11
-57 12 -18 18 29 25 35 35 25 16 -16 15 -24 -10 -74 -27 -55 -48 -65 -48 -23
0 31 0 31 -40 -22 -22 -30 -40 -57 -40 -61 0 -5 -5 -8 -11 -8 -22 0 -1 74 28
100 16 14 39 48 52 75 13 28 26 45 28 38 2 -7 0 -21 -6 -32z m143 -56 c10 -28
-26 -79 -75 -106 -29 -15 -35 -4 -20 38 24 65 80 106 95 68z m-267 -62 c-3
-10 -5 -2 -5 17 0 19 2 27 5 18 2 -10 2 -26 0 -35z m-90 5 c-3 -7 -5 -2 -5 12
0 14 2 19 5 13 2 -7 2 -19 0 -25z m63 -17 c0 -11 5 -21 12 -23 20 -7 -13 -113
-35 -112 -12 1 -17 -6 -17 -22 0 -26 10 -30 28 -12 16 16 17 -66 1 -111 -12
-34 -29 -42 -29 -13 0 10 -7 40 -16 67 -15 44 -16 51 -1 79 8 17 18 55 22 84
3 29 8 59 11 67 9 21 24 19 24 -4z m358 -22 c2 -20 -5 -31 -37 -52 -22 -15
-45 -27 -51 -27 -15 0 -12 26 5 40 8 7 15 17 15 23 0 17 34 46 50 44 8 -1 16
-14 18 -28z m-408 -16 c0 -36 -10 -73 -20 -73 -10 0 -19 58 -12 82 7 29 32 22
32 -9z m220 3 c0 -14 -7 -31 -15 -40 -8 -8 -15 -19 -15 -24 0 -6 -7 -12 -15
-16 -28 -10 -18 50 12 79 15 14 29 25 30 25 2 0 3 -11 3 -24z m-60 0 c0 -8 -4
-17 -9 -20 -5 -3 -15 -30 -21 -58 -31 -132 -76 -149 -51 -19 5 24 13 46 18 50
4 3 16 18 26 34 19 29 37 36 37 13z m140 -40 c0 -26 -8 -43 -32 -67 -28 -27
-34 -30 -36 -15 -6 29 6 61 32 89 32 35 36 34 36 -7z m-103 -103 c-17 -70 -36
-103 -59 -103 -38 0 -14 98 34 140 18 16 34 27 36 26 1 -2 -4 -30 -11 -63z m3
-87 c-5 -15 -10 -54 -10 -86 l0 -58 41 40 40 40 -7 -38 c-4 -21 -15 -47 -25
-58 -11 -11 -19 -23 -19 -28 0 -17 -30 -7 -30 10 -1 16 -1 16 -14 0 -7 -10
-18 -18 -25 -18 -14 0 -15 45 -1 70 6 11 12 36 13 57 2 21 12 52 23 70 22 37
29 37 14 -1z m-80 -63 c0 -24 -8 -58 -17 -76 l-18 -32 -3 79 c-2 44 0 86 3 95
11 28 35 -18 35 -66z m-50 27 c0 -5 -4 -10 -10 -10 -5 0 -10 5 -10 10 0 6 5
10 10 10 6 0 10 -4 10 -10z m-20 -79 c0 -28 -5 -53 -11 -56 -15 -10 -16 -7
-24 53 -6 48 -5 52 14 52 18 0 21 -6 21 -49z m56 -129 c-15 -42 -15 -48 -1
-58 21 -16 19 -38 -6 -60 -22 -19 -22 -19 -15 9 4 16 2 27 -4 27 -5 0 -10 -5
-10 -12 0 -6 -2 -9 -5 -7 -2 3 4 29 15 57 22 57 26 92 10 92 -5 0 -10 -14 -10
-31 0 -34 -15 -69 -30 -69 -13 0 -13 62 0 95 6 16 16 25 24 22 7 -3 19 -1 27
4 21 13 23 -14 5 -69z m132 19 c-14 -24 -59 -35 -51 -14 5 13 35 31 56 32 4 1
2 -8 -5 -18z m-78 -3 c-1 -17 -28 -53 -35 -46 -11 10 7 58 21 58 8 0 14 -6 14
-12z"/>
<path d="M1058 11659 c-24 -13 -23 -39 1 -39 22 0 45 25 36 40 -8 12 -15 12
-37 -1z"/>
<path d="M970 11623 c0 -19 19 -26 35 -13 22 19 18 30 -10 28 -14 -1 -25 -8
-25 -15z"/>
<path d="M1053 11573 c-17 -6 -16 -30 1 -36 18 -7 26 1 26 25 0 18 -5 20 -27
11z"/>
<path d="M1005 11560 c3 -5 8 -10 11 -10 2 0 4 5 4 10 0 6 -5 10 -11 10 -5 0
-7 -4 -4 -10z"/>
<path d="M940 11525 c0 -8 7 -15 15 -15 8 0 15 7 15 15 0 8 -7 15 -15 15 -8 0
-15 -7 -15 -15z"/>
<path d="M1036 11495 c-4 -10 -14 -13 -36 -9 -22 5 -30 3 -30 -8 0 -34 55 -53
66 -23 4 8 15 15 25 15 23 0 25 25 3 34 -21 8 -21 8 -28 -9z"/>
<path d="M912 11404 c4 -21 22 -23 26 -1 2 10 -3 17 -13 17 -10 0 -15 -6 -13
-16z"/>
<path d="M994 11409 c-3 -6 -2 -14 4 -18 5 -3 12 -17 13 -30 7 -46 29 -36 29
13 0 39 -3 46 -19 46 -11 0 -23 -5 -27 -11z"/>
<path d="M1055 11390 c-8 -13 4 -50 16 -50 5 0 9 14 9 30 0 30 -13 40 -25 20z"/>
<path d="M950 11296 c0 -23 19 -29 35 -12 21 20 19 26 -10 26 -15 0 -25 -6
-25 -14z"/>
<path d="M2890 11289 c0 -11 35 -48 75 -79 19 -15 19 -15 1 14 -17 27 -64 76
-72 76 -2 0 -4 -5 -4 -11z"/>
<path d="M1064 11265 c-4 -18 -13 -25 -30 -25 -13 0 -24 5 -24 11 0 8 -4 8
-14 -1 -28 -22 -7 -41 43 -38 45 3 46 4 49 41 4 42 -14 51 -24 12z"/>
<path d="M930 11215 c0 -28 24 -34 34 -9 8 20 -1 34 -20 34 -8 0 -14 -10 -14
-25z"/>
<path d="M1101 11188 c-1 -16 -10 -33 -22 -42 -25 -17 -19 -49 8 -44 23 4 39
62 25 91 -10 22 -11 22 -11 -5z"/>
<path d="M1025 11150 c3 -5 8 -10 11 -10 2 0 4 5 4 10 0 6 -5 10 -11 10 -5 0
-7 -4 -4 -10z"/>
<path d="M995 11108 c-17 -17 -20 -17 -23 -4 -4 18 -18 21 -27 6 -14 -22 6
-50 36 -50 31 0 43 15 37 48 -3 19 -3 19 -23 0z"/>
<path d="M1087 11083 c-4 -3 -7 -16 -7 -29 0 -27 29 -40 48 -20 12 12 11 17
-7 35 -23 23 -25 24 -34 14z"/>
<path d="M1030 11024 c0 -9 -9 -18 -21 -21 -15 -4 -17 -8 -8 -14 19 -11 49 8
49 31 0 11 -4 20 -10 20 -5 0 -10 -7 -10 -16z"/>
<path d="M1036 10931 c-4 -6 -16 -11 -27 -11 -24 0 -37 -29 -18 -41 23 -15 38
-10 55 17 12 17 14 28 7 35 -8 8 -13 7 -17 0z"/>
<path d="M1291 10762 c-1 -13 8 -44 18 -70 11 -26 22 -55 25 -64 3 -10 12 -18
21 -18 8 0 15 -7 15 -15 0 -8 7 -15 15 -15 31 0 4 66 -31 74 -16 4 -24 14 -25
29 0 12 -9 40 -19 62 -15 32 -19 36 -19 17z"/>
<path d="M2201 10591 c-8 -5 -9 -11 -3 -15 13 -8 42 3 42 15 0 11 -21 11 -39
0z"/>
<path d="M2450 10540 c0 -5 8 -10 17 -10 13 0 14 -3 5 -12 -16 -16 -15 -38 2
-38 8 0 16 -5 18 -11 5 -15 38 0 38 18 0 10 -7 14 -20 10 -14 -4 -20 0 -20 12
0 18 -18 41 -32 41 -4 0 -8 -4 -8 -10z"/>
<path d="M2516 10451 c-4 -7 -5 -15 -2 -18 9 -9 19 4 14 18 -4 11 -6 11 -12 0z"/>
<path d="M1808 10089 c-42 -43 -47 -59 -19 -59 12 0 22 -10 26 -27 8 -27 8
-27 16 12 5 22 16 52 24 68 15 25 13 49 -3 46 -4 -1 -24 -19 -44 -40z"/>
<path d="M1746 9995 c4 -8 10 -15 15 -15 5 0 9 -4 9 -9 0 -10 55 -71 64 -71
15 0 2 22 -37 64 -45 48 -61 57 -51 31z"/>
<path d="M3168 11202 c-15 -20 -37 -49 -49 -63 -23 -29 -24 -65 -1 -38 43 50
92 119 92 128 0 20 -15 11 -42 -27z"/>
<path d="M3157 11116 c-41 -49 -44 -56 -23 -56 8 0 28 23 45 50 38 62 27 65
-22 6z"/>
<path d="M784 10978 c-33 -65 -64 -128 -64 -133 0 -3 7 -5 15 -5 8 0 15 9 15
19 0 11 4 22 9 25 8 5 61 110 61 121 0 16 -21 0 -36 -27z"/>
<path d="M811 10904 c-12 -19 -21 -37 -21 -40 0 -3 -9 -17 -19 -32 -11 -15
-22 -38 -26 -52 -7 -24 -7 -24 19 5 14 17 26 35 26 42 0 7 14 32 30 56 32 48
35 57 21 57 -5 0 -18 -16 -30 -36z"/>
<path d="M849 10843 c-35 -43 -59 -83 -59 -98 0 -30 23 -9 53 48 30 57 33 83
6 50z"/>
<path d="M635 10793 c36 -66 60 -96 74 -92 12 4 -77 138 -92 139 -5 0 3 -21
18 -47z"/>
<path d="M610 10723 c0 -14 50 -67 57 -59 4 3 -2 18 -13 33 -21 27 -44 41 -44
26z"/>
<path d="M4678 10910 c-16 -32 -28 -62 -28 -67 0 -4 11 -30 25 -57 14 -27 25
-58 25 -68 0 -10 7 -45 17 -78 18 -66 40 -83 29 -22 -16 83 -18 122 -8 122 5
0 13 -8 17 -17 5 -15 11 -11 31 22 28 46 33 101 9 91 -13 -4 -13 -2 -5 14 14
26 13 40 -5 40 -8 0 -15 -6 -15 -14 0 -8 -6 -21 -13 -28 -8 -7 -19 -27 -25
-43 -6 -17 -11 -23 -11 -15 -1 23 20 94 30 100 5 3 10 17 11 30 5 40 -22 30
-37 -14 -20 -57 -35 -68 -24 -16 5 23 14 51 20 61 7 14 6 19 -3 19 -7 -1 -25
-27 -40 -60z"/>
<path d="M5341 10800 c-17 -58 -27 -180 -14 -180 13 0 23 48 23 106 0 23 4 53
9 67 5 13 6 29 2 36 -5 7 -12 -4 -20 -29z"/>
<path d="M5387 10760 c-6 -16 -27 -115 -27 -130 0 -6 4 -10 9 -10 12 0 34 102
28 132 -2 17 -5 19 -10 8z"/>
<path d="M3032 10624 l-72 -73 -7 -134 c-4 -89 -2 -136 5 -140 6 -5 12 35 17
118 l7 124 74 78 c71 75 89 104 62 102 -7 -1 -46 -34 -86 -75z"/>
<path d="M5405 10677 c-4 -10 -5 -21 -1 -24 10 -10 18 4 13 24 -4 17 -4 17
-12 0z"/>
<path d="M2740 10595 c0 -8 4 -15 8 -15 4 0 36 -22 70 -50 34 -27 64 -50 67
-50 16 0 1 32 -22 47 -16 10 -37 26 -47 35 -11 10 -28 20 -38 24 -10 3 -18 10
-18 15 0 5 -4 9 -10 9 -5 0 -10 -7 -10 -15z"/>
<path d="M4963 10573 c3 -10 17 -49 31 -87 14 -38 26 -75 26 -83 0 -8 8 -23
19 -34 10 -11 21 -34 25 -50 5 -28 26 -41 26 -16 0 18 -30 106 -50 147 -9 19
-26 59 -36 88 -10 30 -24 52 -32 52 -9 0 -12 -7 -9 -17z"/>
<path d="M5511 10527 c-14 -29 -40 -75 -58 -104 -18 -29 -33 -57 -33 -63 0
-25 26 -1 51 46 14 27 32 60 41 74 15 23 35 101 27 100 -2 -1 -15 -24 -28 -53z"/>
<path d="M5020 10553 c0 -10 11 -40 25 -68 l25 -50 -6 45 c-8 57 -44 117 -44
73z"/>
<path d="M2776 10502 c78 -67 87 -73 96 -64 6 6 -10 25 -44 51 -61 46 -101 56
-52 13z"/>
<path d="M3015 10513 c-12 -29 -19 -223 -8 -223 10 0 29 227 20 236 -2 3 -8
-3 -12 -13z"/>
<path d="M3058 10473 c-4 -76 1 -125 13 -118 12 8 12 162 0 169 -5 4 -11 -20
-13 -51z"/>
<path d="M4631 10503 c27 -34 39 -45 49 -41 12 4 -36 58 -52 58 -6 0 -5 -7 3
-17z"/>
<path d="M3096 10469 c-9 -47 -7 -59 9 -59 15 0 31 61 20 79 -11 19 -22 12
-29 -20z"/>
<path d="M4120 10490 c-8 -5 -24 -12 -35 -16 -17 -7 -16 -8 9 -12 30 -4 76 14
76 30 0 10 -31 9 -50 -2z"/>
<path d="M4895 10464 c-10 -19 -45 -69 -77 -111 -55 -73 -72 -109 -46 -101 6
2 18 17 27 34 9 16 29 43 44 59 16 17 33 42 39 58 5 15 14 27 18 27 9 0 25 59
18 65 -2 2 -12 -12 -23 -31z"/>
<path d="M5547 10479 c-9 -6 -17 -16 -17 -22 0 -7 -9 -20 -20 -30 -11 -9 -20
-23 -20 -31 0 -8 -6 -16 -12 -19 -10 -3 -10 -8 -2 -16 8 -9 22 5 53 55 23 36
40 68 39 69 -2 2 -11 -1 -21 -6z"/>
<path d="M4590 10469 c0 -18 49 -64 58 -54 3 3 -8 20 -26 38 -22 21 -32 27
-32 16z"/>
<path d="M5146 10443 c-10 -62 -19 -249 -12 -241 4 3 14 42 21 85 l13 78 1
-70 c1 -51 4 -65 11 -53 15 25 25 168 12 168 -6 0 -13 -8 -15 -17 -3 -10 -5 6
-6 35 -1 60 -16 69 -25 15z"/>
<path d="M4140 10442 c-25 -8 -53 -19 -62 -23 -10 -5 -29 -9 -43 -9 -19 0 -25
-5 -25 -21 0 -19 4 -21 31 -15 17 3 45 12 62 20 18 7 58 21 90 31 31 9 57 21
57 26 0 13 -58 9 -110 -9z"/>
<path d="M2760 10435 c-10 -12 -9 -16 6 -21 11 -3 27 -10 36 -15 24 -12 31 5
10 23 -30 26 -39 28 -52 13z"/>
<path d="M4516 10428 c5 -14 101 -64 108 -57 8 8 -8 24 -45 47 -40 24 -71 29
-63 10z"/>
<path d="M5560 10409 c-14 -17 -33 -38 -42 -47 -18 -16 -24 -42 -12 -42 6 0
45 41 82 84 14 17 16 36 4 36 -4 0 -19 -14 -32 -31z"/>
<path d="M4909 10383 c-75 -86 -100 -123 -97 -145 3 -20 8 -15 41 34 22 32 52
72 68 89 16 17 29 35 29 40 0 17 -17 9 -41 -18z"/>
<path d="M5230 10346 c-14 -38 -17 -108 -4 -113 7 -2 13 21 17 64 7 73 3 90
-13 49z"/>
<path d="M4278 10348 c-6 -17 15 -184 24 -194 10 -9 -2 189 -12 199 -4 5 -9 2
-12 -5z"/>
<path d="M4234 10275 c4 -44 11 -93 16 -110 7 -22 9 -5 4 64 -3 52 -10 102
-15 110 -7 11 -9 -8 -5 -64z"/>
<path d="M4933 10316 c-13 -6 -23 -16 -23 -23 0 -7 -4 -13 -9 -13 -12 0 -25
-39 -17 -48 8 -8 63 52 71 78 3 11 5 19 3 19 -2 -1 -13 -6 -25 -13z"/>
<path d="M4330 10261 c0 -28 5 -53 11 -56 16 -10 17 -4 12 53 -7 66 -23 68
-23 3z"/>
<path d="M3454 10249 c-2 -4 12 -11 33 -14 21 -4 51 -11 67 -16 37 -11 86 -12
86 0 0 4 -19 11 -42 15 -24 4 -65 10 -91 15 -26 4 -50 4 -53 0z"/>
<path d="M2945 10224 c-16 -15 -54 -44 -82 -66 -29 -22 -53 -44 -53 -48 0 -3
-11 -12 -24 -20 -28 -14 -36 -33 -61 -138 -13 -54 -15 -76 -7 -84 15 -15 14
-17 42 77 13 44 30 91 38 105 14 26 171 150 189 150 6 0 14 -11 17 -25 4 -14
11 -25 16 -25 6 0 10 -6 10 -14 0 -7 11 -26 25 -42 39 -44 45 -53 45 -60 0 -6
25 -38 118 -153 15 -19 29 -38 30 -42 4 -11 32 -12 32 -1 0 16 -40 80 -69 113
-17 18 -31 37 -31 41 0 9 -37 63 -78 116 -18 22 -32 43 -32 48 0 4 -7 16 -17
26 -9 10 -21 28 -27 41 -16 31 -46 32 -81 1z"/>
<path d="M3480 10190 c0 -5 20 -10 45 -10 25 0 45 5 45 10 0 6 -20 10 -45 10
-25 0 -45 -4 -45 -10z"/>
<path d="M3638 10159 c-16 -21 -28 -44 -28 -49 0 -6 -4 -10 -9 -10 -4 0 -31
-30 -60 -67 -50 -65 -51 -68 -45 -118 4 -27 10 -54 14 -59 18 -19 30 8 28 58
-1 36 3 58 12 69 8 8 26 29 40 47 14 18 33 40 43 49 9 8 17 20 17 25 0 5 6 17
14 25 8 9 18 28 21 44 11 41 -15 34 -47 -14z"/>
<path d="M4536 10175 c-15 -14 -30 -25 -34 -25 -4 0 -35 -28 -70 -61 -45 -44
-60 -65 -53 -72 8 -8 19 -3 38 15 16 14 39 34 52 44 13 11 37 31 53 46 16 16
40 35 53 44 14 9 25 20 25 25 0 18 -38 8 -64 -16z"/>
<path d="M3495 10150 c-3 -5 3 -10 14 -10 11 0 23 5 26 10 3 6 -3 10 -14 10
-11 0 -23 -4 -26 -10z"/>
<path d="M2944 10112 c-11 -9 -33 -26 -48 -37 -73 -53 -91 -75 -61 -75 8 0 15
5 15 10 0 6 8 14 17 17 9 4 27 15 38 25 12 10 37 27 55 37 19 10 36 23 38 29
6 18 -30 14 -54 -6z"/>
<path d="M3669 10064 c-24 -32 -47 -60 -51 -62 -5 -2 -8 -10 -8 -19 0 -21 23
-11 37 17 6 12 15 25 20 29 19 13 54 72 51 83 -3 7 -24 -15 -49 -48z"/>
<path d="M3957 10092 c-10 -10 -17 -23 -17 -28 0 -5 -16 -45 -34 -88 -34 -78
-37 -96 -13 -96 16 0 75 133 83 188 7 47 5 50 -19 24z"/>
<path d="M4538 10099 c-19 -10 -25 -39 -9 -39 5 0 16 11 25 25 17 26 12 31
-16 14z"/>
<path d="M3732 10068 c-7 -7 -12 -17 -12 -24 0 -7 -4 -14 -8 -16 -15 -6 -54
-69 -47 -76 3 -4 11 1 16 10 5 9 16 24 24 32 8 8 15 19 15 24 0 5 9 17 20 27
21 19 26 35 12 35 -4 0 -13 -5 -20 -12z"/>
<path d="M2953 10044 c-17 -9 -40 -25 -50 -36 -18 -20 -18 -21 6 -13 34 10 91
45 91 56 0 13 -10 11 -47 -7z"/>
<path d="M3753 10013 c-31 -32 -43 -64 -25 -63 10 1 64 80 60 90 -2 5 -18 -7
-35 -27z"/>
<path d="M3975 9985 c-3 -11 -11 -30 -16 -43 -5 -13 -6 -28 -3 -34 8 -13 37
68 31 85 -3 7 -8 3 -12 -8z"/>
<path d="M2943 9983 c-7 -2 -13 -11 -13 -20 0 -20 34 -12 38 10 3 17 -3 20
-25 10z"/>
<path d="M4001 9944 c-6 -14 -8 -30 -5 -36 5 -8 34 41 34 58 0 14 -19 0 -29
-22z"/>
<path d="M4046 9934 c-9 -22 3 -32 14 -14 12 19 12 30 1 30 -5 0 -12 -7 -15
-16z"/>
<path d="M3390 9860 c0 -5 7 -10 15 -10 8 0 15 5 15 10 0 6 -7 10 -15 10 -8 0
-15 -4 -15 -10z"/>
<path d="M363 10708 c15 -96 27 -178 32 -219 3 -26 13 -55 21 -65 15 -18 15
-18 10 6 -4 14 -13 79 -22 145 -21 157 -22 165 -35 165 -7 0 -9 -13 -6 -32z"/>
<path d="M315 10690 c2 -25 7 -101 11 -170 6 -123 17 -160 48 -160 6 0 25 -19
41 -41 22 -29 31 -36 33 -24 4 16 -25 60 -74 112 -17 18 -24 37 -24 66 0 53
-20 205 -31 237 -7 19 -8 14 -4 -20z"/>
<path d="M430 10640 c1 -58 22 -186 33 -197 9 -8 8 22 -3 136 -10 107 -30 148
-30 61z"/>
<path d="M484 10598 c10 -89 27 -118 20 -33 -4 39 -11 75 -16 80 -7 7 -9 -8
-4 -47z"/>
<path d="M738 10472 c-4 -13 -2 -76 2 -140 5 -64 10 -124 10 -131 0 -10 3 -11
9 -5 6 5 5 63 -2 154 -7 83 -15 135 -19 122z"/>
<path d="M780 10318 c0 -67 2 -119 4 -117 9 11 15 239 6 239 -6 0 -10 -47 -10
-122z"/>
<path d="M820 10320 c0 -53 4 -90 10 -90 6 0 10 37 10 90 0 53 -4 90 -10 90
-6 0 -10 -37 -10 -90z"/>
<path d="M880 10280 c0 -58 4 -89 10 -85 6 3 10 42 10 85 0 43 -4 82 -10 85
-6 4 -10 -27 -10 -85z"/>
<path d="M650 10268 c0 -8 18 -31 40 -52 22 -20 40 -33 40 -29 0 4 -18 28 -40
52 -22 24 -40 37 -40 29z"/>
<path d="M643 10193 c9 -9 19 -14 23 -11 10 10 -6 28 -24 28 -15 0 -15 -1 1
-17z"/>
<path d="M1085 10180 c4 -6 11 -8 16 -5 14 9 11 15 -7 15 -8 0 -12 -5 -9 -10z"/>
<path d="M1085 10139 c-11 -17 0 -20 21 -4 17 13 17 14 2 15 -9 0 -20 -5 -23
-11z"/>
<path d="M1235 10056 c-41 -23 -46 -43 -10 -38 29 4 88 36 93 50 6 19 -39 12
-83 -12z"/>
<path d="M1272 10008 c-15 -15 -15 -28 -1 -28 11 0 39 24 39 34 0 11 -26 6
-38 -6z"/>
<path d="M1930 10255 c0 -19 43 -145 48 -140 6 6 -28 126 -40 140 -5 5 -8 5
-8 0z"/>
<path d="M2015 10200 c9 -61 15 -80 26 -80 13 0 12 9 -11 70 l-21 55 6 -45z"/>
<path d="M2350 10236 c0 -6 46 -53 56 -57 30 -13 84 -57 88 -71 6 -24 36 -23
36 1 0 10 -6 21 -12 24 -7 3 -44 28 -82 56 -61 45 -86 59 -86 47z"/>
<path d="M2450 10225 c0 -8 4 -15 9 -15 5 0 17 -7 26 -16 9 -9 19 -13 23 -9 4
4 1 10 -5 12 -7 3 -13 11 -13 18 0 7 -7 16 -16 19 -22 9 -24 8 -24 -9z"/>
<path d="M2050 10216 c0 -16 28 -42 36 -33 3 3 3 15 -1 26 -7 23 -35 29 -35 7z"/>
<path d="M2316 10103 c-6 -14 -5 -15 5 -6 7 7 10 15 7 18 -3 3 -9 -2 -12 -12z"/>
<path d="M1986 10080 c8 -31 24 -50 24 -29 0 8 -7 24 -16 35 -14 18 -15 18 -8
-6z"/>
<path d="M2335 10021 c-12 -21 -55 -164 -50 -169 9 -9 15 3 30 59 8 30 19 69
24 87 9 31 8 41 -4 23z"/>
<path d="M2249 9924 c-6 -16 -15 -37 -20 -46 -11 -22 -11 -28 -1 -28 9 0 44
91 37 98 -2 2 -9 -8 -16 -24z"/>
<path d="M2355 9909 c-4 -11 -4 -23 0 -27 7 -7 25 17 25 36 0 20 -18 14 -25
-9z"/>
<path d="M3703 11230 c-61 -39 -80 -57 -70 -66 5 -5 147 93 147 102 0 10 -19
1 -77 -36z"/>
<path d="M3922 11252 c-12 -11 -22 -23 -22 -28 0 -5 -16 -26 -36 -46 -46 -48
-52 -87 -25 -163 12 -33 21 -72 21 -87 0 -26 15 -46 27 -35 3 3 -5 48 -17 100
-13 51 -20 104 -17 118 4 13 25 43 47 67 22 23 40 46 40 51 0 5 6 11 13 14 8
3 9 8 1 16 -8 9 -16 7 -32 -7z"/>
<path d="M3720 11175 c-8 -8 -32 -29 -53 -46 -40 -33 -43 -53 -5 -26 48 33
103 87 88 87 -9 0 -22 -7 -30 -15z"/>
<path d="M3894 11055 c9 -65 15 -85 27 -85 12 0 11 40 -2 81 -20 57 -32 59
-25 4z"/>
<path d="M3650 10920 c0 -24 40 -133 54 -147 22 -22 -14 113 -41 152 -13 19
-13 19 -13 -5z"/>
<path d="M3716 10883 c10 -56 23 -85 34 -78 16 10 12 47 -10 83 -26 42 -32 41
-24 -5z"/>
<path d="M5130 10906 c0 -15 57 -39 71 -30 17 10 9 32 -13 38 -37 10 -58 7
-58 -8z"/>
<path d="M3598 10900 c-6 -18 15 -96 40 -151 31 -66 26 -18 -7 81 -15 46 -30
78 -33 70z"/>
<path d="M3788 10767 c-54 -40 -75 -64 -64 -75 9 -8 152 86 160 106 11 26 -41
9 -96 -31z"/>
<path d="M3801 10717 c-6 -8 -8 -16 -5 -20 10 -9 34 4 34 19 0 18 -14 18 -29
1z"/>
<path d="M3736 10508 c-9 -36 -7 -48 9 -48 10 0 15 11 15 35 0 39 -14 47 -24
13z"/>
</g>
</svg>
